<?xml version="1.0" standalone="no"?><!DOCTYPE svg PUBLIC "-//W3C//DTD SVG 1.1//EN" "http://www.w3.org/Graphics/SVG/1.1/DTD/svg11.dtd"><svg t="1766492594696" class="icon" viewBox="0 0 1024 1024" version="1.1" xmlns="http://www.w3.org/2000/svg" p-id="5042" xmlns:xlink="http://www.w3.org/1999/xlink" width="500" height="500"><path d="M860.8 544H163.2c-6.4 0-12.8-3.2-16-9.6-3.2-6.4-3.2-12.8-3.2-16L262.4 179.2c3.2-6.4 9.6-12.8 19.2-12.8h460.8c9.6 0 16 6.4 19.2 12.8l121.6 342.4c3.2 6.4 0 12.8-3.2 16-6.4 3.2-12.8 6.4-19.2 6.4z m-672-38.4h646.4l-105.6-304H294.4l-105.6 304z" fill="#5B8FD9" p-id="5043"></path><path d="M723.2 451.2H304c-9.6 0-19.2-9.6-19.2-19.2s9.6-19.2 19.2-19.2h419.2c9.6 0 19.2 9.6 19.2 19.2 0 12.8-9.6 19.2-19.2 19.2zM691.2 374.4H336c-9.6 0-19.2-9.6-19.2-19.2s9.6-19.2 19.2-19.2h355.2c9.6 0 19.2 9.6 19.2 19.2s-9.6 19.2-19.2 19.2zM668.8 297.6h-310.4c-9.6 0-19.2-9.6-19.2-19.2s9.6-19.2 19.2-19.2h310.4c9.6 0 19.2 9.6 19.2 19.2s-9.6 19.2-19.2 19.2zM592 524.8c0 3.2 0 6.4 3.2 9.6 3.2 38.4-28.8 70.4-73.6 73.6-44.8 3.2-83.2-25.6-86.4-60.8 0-6.4 0-16 3.2-22.4H144v332.8h736V524.8h-288z" fill="#5B8FD9" p-id="5044"></path><path d="M668.8 726.4h-310.4c-9.6 0-19.2-9.6-19.2-19.2s9.6-19.2 19.2-19.2h310.4c9.6 0 19.2 9.6 19.2 19.2s-9.6 19.2-19.2 19.2z" fill="#F9D65D" p-id="5045"></path></svg>