<?xml version="1.0" standalone="no"?><!DOCTYPE svg PUBLIC "-//W3C//DTD SVG 1.1//EN" "http://www.w3.org/Graphics/SVG/1.1/DTD/svg11.dtd"><svg t="1766419157792" class="icon" viewBox="0 0 1024 1024" version="1.1" xmlns="http://www.w3.org/2000/svg" p-id="19651" xmlns:xlink="http://www.w3.org/1999/xlink" width="500" height="500"><path d="M1024 938.349714v83.382857c0 1.536-0.731429 2.267429-1.462857 2.267429H1.462857c-0.731429 0-1.462857-0.731429-1.462857-2.267429V2.194286C0 0.731429 0.731429 0 1.462857 0h75.995429c0.731429 0 1.462857 0.731429 1.462857 2.194286v933.888h943.542857c0.804571 0 1.536 0.950857 1.536 2.267428z" fill="#409EFF" p-id="19652"></path><path d="M485.522286 651.776H212.187429a16.822857 16.822857 0 0 0-17.115429 17.115429v45.421714a16.676571 16.676571 0 0 0 17.115429 16.384h273.334857a16.676571 16.676571 0 0 0 17.115428-16.384v-45.421714a16.896 16.896 0 0 0-17.115428-17.115429z m260.608-260.681143H407.259429a16.749714 16.749714 0 0 0-16.384 17.188572v45.421714a16.530286 16.530286 0 0 0 16.384 16.384h338.870857a16.676571 16.676571 0 0 0 17.115428-16.384v-45.421714a16.896 16.896 0 0 0-17.042285-17.334858z m260.681143-260.608H668.379429a16.676571 16.676571 0 0 0-16.384 17.115429v45.421714a16.530286 16.530286 0 0 0 16.384 16.384h338.870857a16.749714 16.749714 0 0 0 17.115428-16.384v-45.421714a16.896 16.896 0 0 0-17.481143-17.261715z" fill="#409EFF" p-id="19653"></path></svg>